/* XPM */
static char * collectible_xpm[] = {
"40 40 8 1",
" 	c None",
".	c #CE9946",
"+	c #F4E555",
"@	c #9F6B3E",
"#	c #E6BF4A",
"$	c #817C68",
"%	c #B3B094",
"&	c #D1D1BB",
"                                        ",
"                                        ",
"                                        ",
"                                        ",
"         .     ..           . ..        ",
"        .+@  ..++.    .... .+@+#@       ",
"       .++@@.+++++....++++.#+#+#@       ",
"      .++++##+++++++##++++##++++#.      ",
"      .++++##+++++++##++++#+++++#.      ",
"      .++++##+++++++##++++++++++#.      ",
"     ..++++#++++++++#++++++++++##@      ",
"     .+++++#++++++++#+++++++#++##@      ",
"     .+++++#++++++++#+++++++#++##.      ",
"     .+++++#++++++++++++#+++#++##.      ",
"     .++++++++++++#+++++##++#++##.      ",
"      @+++++++++++#++++####+++++#@      ",
"      .+$$$$$$$$$$$$$$$$.$$$$$$#.@      ",
"      $$%&&%&&%&&%&&%&&.+@%&&%&$$@      ",
"     $&&$$$$$$$$$$$$$$.++@$$$$$%%$      ",
"      $$############+##++######$$       ",
"      .#+++##++++###++++++##++++@       ",
"      .++++##+++++##++++++##++++@       ",
"      .+++++#+++++#+++++++##++++@       ",
"      .+#+++#+++++#+++++++##+#+##@      ",
"      .+++++++++++#++++++++#+#++#.      ",
"      .+++++++++++++++++++##++++#.      ",
"     .++++++++++++++++++++##++++#@      ",
"     .++++++++++#+++++#+++##+++++@      ",
"     @+++###++++###++##+++###++##@      ",
"     @+##############.#####.##+##.      ",
"     @###+###########.#####.##+##@      ",
"     @####.##########.####..##+##@      ",
"     @###+.##########..###..#####@      ",
"     @.##+..#....####.........##.@      ",
"     @...#.@@@@@@....@@@@@@@@@...@      ",
"      @@@@@      @@@@         @@@       ",
"                                        ",
"                                        ",
"                                        ",
"                                        "};
