/* XPM */
static char * empty_xpm[] = {
"40 40 2 1",
" 	c #99E485",
".	c #87CE8D",
"                                        ",
"                                        ",
"    ..                                  ",
"    ..                                  ",
"     ..                                 ",
"           .          ..                ",
"           .          ..          .     ",
"           .  .                 ..      ",
"           .  .                 ..      ",
"  ...                           ..      ",
" ....                                   ",
" ...                                    ",
"            ....        ..              ",
"            ....        ..              ",
"            ....        ...  .          ",
"     ....   .....        ..  .          ",
"    ...        ..                  .    ",
"                                   . .. ",
"                                   . .. ",
"                                        ",
"                                        ",
"                                        ",
"  ..                                    ",
"  ..                                    ",
"  ...       ...                    .... ",
"    .      ....       ....        ...   ",
"           ...        ....              ",
"                      .....             ",
"                      .....             ",
"    ..                   ..             ",
"    ...                                 ",
"     ..                                 ",
"                                  .     ",
"                                  .     ",
"                                ...     ",
"              .         .       ...     ",
"     ....     . .       . .     ..      ",
"      ....                              ",
"      ....                              ",
"                                        "};
