/* XPM */
static char * ground_scaled_xpm[] = {
"20 20 2 1",
" 	c #99E485",
".	c #87CE8D",
"                    ",
"                    ",
"                    ",
"                    ",
"                    ",
"                    ",
"         .     .    ",
"       ...     .    ",
"       ...     .    ",
"       ...     . .. ",
"       ..      .... ",
"               ..   ",
"  ....              ",
"  ....              ",
"    ...             ",
"                    ",
"                    ",
"                    ",
"                    ",
"                    "};
