/* XPM */
static char * ground_xpm[] = {
"16 16 2 1",
" 	c #99E485",
".	c #87CE8D",
"                ",
"                ",
"                ",
"                ",
"                ",
"       .    .   ",
"      ..    .   ",
"      ..    . . ",
"      .     ... ",
"            ..  ",
"  ...           ",
"   ...          ",
"                ",
"                ",
"                ",
"                "};
