/* XPM */
static char * ground_big_xpm[] = {
"96 32 2 1",
" 	c #99E485",
".	c #87CE8D",
"                                                                                                ",
"                                                                                                ",
"                                   ..                                       ..                  ",
"                   ...              ..                                     ...      .           ",
"                    ...    ..            .        .               ..       ..       .           ",
"       .    .             ...            .        .        .      ...              ...      ..  ",
"      ..    .             ..             . .              .        ..              ...     ...  ",
"      ..    . .                   ..                      .                        . .     ..   ",
"      .     ...   .              ...                                     .                      ",
"            ..    .              ..                                     ..                      ",
"  ...             ..                      ...      ..                   ..                      ",
"   ...            ..   .                  ...      ... .                .               .       ",
"                   .   . .          ...   ....      .. .             ..   ...           . .     ",
"                       . .         ...      ..              .        ... ...                    ",
"                                                            . .       ..                        ",
"                                                                                                ",
"                                                                                                ",
"                          .                                                                     ",
"                          ..      .                                                             ",
"   ...      .     .       ..      ..      ..                ...                     ...      .  ",
"    ...           . .      .       .     ...      ...      ...     .                 ...    ..  ",
"                  . .                    ..       ...                                       ..  ",
"            .                                     ....               .                      .   ",
"          . .                      ..               ..             . .                          ",
"  ..      . .              ..      ...                             .                            ",
"  ...     .               ...       ..                             .          .                 ",
"   ..              ...    ..                               .                . .  .        ..    ",
"                    ...                                   ..                .    . .     ...    ",
"            ..                             .       .      ..                .      .     ..     ",
"           ...                      ...    . .     . .    .                                     ",
"           ..                        ...                                                        ",
"                                                                                                "};
