/* XPM */
static char * walkable_scaled_xpm[] = {
"20 20 4 1",
" 	c #DDB982",
".	c #C29861",
"+	c #D6AF74",
"@	c #CCA46A",
"  ...+++++++++++@   ",
" @   @++++++++++.   ",
"@     +++++++++@@...",
"@     +++++++++@@...",
"      @+++++++.@@@@@",
"     ++++@++     ..@",
"@   @++@@           ",
"+@@@++.             ",
"+@@@++.             ",
"@@   @              ",
"      @++++@       @",
"@@   @++++++++@++++.",
"  @@.++++++++++@@@@ ",
"  @@.++++++++++@@@@ ",
"  @@ .@+++++++++    ",
"    .@.+++++++@@    ",
"    .@@..+@@.. @    ",
"    .@@@@.+++++@    ",
"    .@@@@.+++++@    ",
"  @@@@.+++++++++@   "};
