/* XPM */
static char * wall_xpm[] = {
"40 40 4 1",
" 	c #DDB982",
".	c #C29861",
"+	c #D6AF74",
"@	c #CCA46A",
"  ...+++++++++++@     ...+++++++++++    ",
" @   @++++++++++.    @   @++++++++...   ",
"@     +++++++++@@...@     ++++++..@@@...",
"@     +++++++++@@...@     ++++++..@@@...",
"      @+++++++.@@@@@      @++++.@@@@@@@@",
"     ++++@++     ..@     ++++@+.@@@@@..@",
"@   @++@@           @   @++@@   @@@@.   ",
"+@@@++.             +@@@++.     ....    ",
"+@@@++.             +@@@++.     ....    ",
"@@   @              @@   @     @        ",
"      @++++@       @      @+++++       @",
"@@   @++++++++@++++.@@   @++++++++@++++.",
"  @@.++++++++++@@@@   @@.++++++++++@@@@ ",
"  @@.++++++++++@@@@   @@.++++++++++@@@@ ",
"  @@ .@+++++++++      @@ .++++++++++    ",
"    .@.+++++++@@        .+++++++++@@    ",
"    .@@..+@@.. @        .+++++@@.. @   +",
"    .@@@@.+++++@        .@+++@+++++@ ++ ",
"    .@@@@.+++++@        .@+++@+++++@ ++ ",
"  @@@@.+++++++++@     @@@@@@@+++++++@   ",
"  ...+++++++++++@     ...+++++++++++@   ",
" @+++@++++++++++.@@  @   @++++++++++.@@ ",
"@+++++.@@..@+++@@...@     +++...++++@...",
"@+++++.@@..@+++@@...@     +++...++++@...",
"  ++++@     @@.@@@@@      @..   ...@@@@@",
" ++++@     +     ..@     +.          ..@",
"@+++@      +        @   @....           ",
"+@@@      +         +@@@++.....         ",
"+@@@      +         +@@@++.....         ",
"@@        +         @@   @@@@@....      ",
"          +        @      @++++@....   @",
"@@        +    ++++.@@   @++++++++@..@@.",
"  @@.+     +  +@@@@   @@.++++++++++@@   ",
"  @@.+     +  +@@@@   @@.++++++++++@@   ",
"  @@ .@     ++++      @@ .@+++++++++    ",
"    .@.+++++++@@        .@.+++++++@     ",
"    .@@..+@@.. @   +    .@@..+@@.. @    ",
"    .@@@@.+++++@ ++     .@@@@.+++++@    ",
"    .@@@@.+++++@ ++     .@@@@.+++++@    ",
"  @@@@.+++++++++@     @@@@.+++++++++@   "};
