/* XPM */
static char * idle_x2_xpm[] = {
"64 64 30 1",
" 	c None",
".	c #593F2D",
"+	c #986641",
"@	c #B87F4C",
"#	c #784D36",
"$	c #D9AA8D",
"%	c #F4C8A3",
"&	c #886644",
"*	c #E8E8F8",
"=	c #1F3E34",
"-	c #B58A73",
";	c #6C483E",
">	c #3A7864",
",	c #F4DBBC",
"'	c #48302A",
")	c #5A5641",
"!	c #817C68",
"~	c #3C3A2C",
"{	c #B3B094",
"]	c #D1D1BB",
"^	c #C4873C",
"/	c #DDA349",
"(	c #9A987D",
"_	c #E9CA4F",
":	c #99784D",
"<	c #856142",
"[	c #3E3024",
"}	c #BCA769",
"|	c #A38C4D",
"1	c #3E2A20",
"                                                                ",
"                                                                ",
"                                                                ",
"                                                                ",
"                                                                ",
"                                                                ",
"                           ........                             ",
"                           ........                             ",
"                        ...+++@@@@@..                           ",
"                        ...+++@@@@@..                           ",
"                      ..+++@@+@@@@@@@.    ....                  ",
"                     .++++@++@+++++@@+....+@@.                  ",
"                     .++++@++@+++++@@+....+@@.                  ",
"                     .++@@+@@++++++++@@@@@@@@.                  ",
"                     .++++@++@@@@@@++++++++..                   ",
"                     .++++@++@@@@@@++++++++..                   ",
"                   ..+@@++++++++@@@@@@++@@+..                   ",
"                   ..+@@++++++++@@@@@@++@@+..                   ",
"                   ..#++++....##++@@@+++++#..                   ",
"                   ..###..$%%$..##+++@++++.                     ",
"                   ..###..$%%$..##+++@++++.                     ",
"                   ..#..$$&$$%$$......@@##.                     ",
"                     .$$%%*==$%%$$=**-....                      ",
"                     .$$%%*==$%%$$=**-....                      ",
"                      ;;%%*>>%,,$$>**$''                        ",
"                      ;;%%*>>%,,$$>**$''                        ",
"                      ;;$$%%%,,,%%$$$-''                        ",
"                        ''$%%%$$$$$--'                          ",
"                        ''$%%%$$$$$--'                          ",
"                     )))!!'''$$$--'''!~~~~                      ",
"                   )){]]{{!!!'''''!!!^//^^~                     ",
"                   )){]]{{!!!'''''!!!^//^^~                     ",
"                   )){]]]]{((!!!!!^/////^^~                     ",
"                   )){]]]]{((!!!!!^/////^^~                     ",
"                  )//~{{]]{(((____////^^~~!~~                   ",
"                  )__/~~{{{(((____////~~!!(~~                   ",
"                  )__/~~{{{(((____////~~!!(~~                   ",
"                ~~/___~~((((((((___//^~~(((!!~                  ",
"                ~~~//_//))!(((((___^^)!!((!~~~                  ",
"                ~~~//_//))!(((((___^^)!!((!~~~                  ",
"                ''$~~~~~(())):<<<<)))^~~~~~$$'                  ",
"                ''$~~~~~(())):<<<<)))^~~~~~$$'                  ",
"                ''%%%%~~((((()))))^^^^~~%%%%%'                  ",
"                ''$%%~(((({{{(/////^^^^^~~%$$'                  ",
"                ''$%%~(((({{{(/////^^^^^~~%$$'                  ",
"                  ''''~~((({{{__///^^^~~'''''                   ",
"                     [}}~~~(({((__/~~~||[[                      ",
"                     [}}~~~(({((__/~~~||[[                      ",
"                     [}}}}}~~~~~~~~}}}||[[                      ",
"                     [}}}}}~~~~~~~~}}}||[[                      ",
"                     [}}}}}||[[[[[|}}}||[[                      ",
"                     1++}}|[[     [|||++11                      ",
"                     1++}}|[[     [|||++11                      ",
"                     1++++[        [[+++11                      ",
"                   11+@@++[        [[+++++1                     ",
"                   11+@@++[        [[+++++1                     ",
"                   11@++[[           [++@@1                     ",
"                   11@++[[           [++@@1                     ",
"                   ##111              1111#                     ",
"                                                                ",
"                                                                ",
"                                                                ",
"                                                                ",
"                                                                "};
