/* XPM */
static char * exit_xpm[] = {
"40 40 8 1",
" 	c None",
".	c #ED694E",
"+	c #F69E58",
"@	c #5A5641",
"#	c #817C68",
"$	c #B3B094",
"%	c #FED261",
"&	c #9A987D",
"                                        ",
"                                        ",
"                                        ",
"                                        ",
"                                        ",
"          ..                            ",
"           +.+                          ",
"             .  .                       ",
"                 .                      ",
"                 ..                     ",
"        ..       ...                    ",
"        +.      ....     ..             ",
"       .+       .....   ...             ",
"       ..      ......   ..              ",
"          .    ...+... ...              ",
"         ..   ....+........             ",
"         ..  ....++..........           ",
"        ...  ...++++....+......         ",
"        .... ...++++....++.....@        ",
"       #.......++++++...+++.....@       ",
"      #$..+....+++++++++++++....@       ",
"      #$..++...+++%++++++%+++...@       ",
"      @&&..+++..++%%+++++%%++...$@      ",
"      @###..++++++%%%++++%%++...$$@     ",
"      #+$$$..++%%+%%%%++%%%++...$&@     ",
"     #$$$$$$..++%%%%%%%%%%%%+..&&&@     ",
"     #$$$$$####@#@@%%%%%%%%###@#@&@     ",
"     @&&&&#++%++$$$@%%%%%%#%++$$$#@     ",
"     @&&&#$$$$$$$$$####@#@$$$$$$$&#     ",
"     @&&&#&$$$$$$$#++%+$$$@$$$&&&&@     ",
"      @&&@&&&&&&&#$$$$$$$$$@&&&&&&@     ",
"       @@@&&&&&&&#&$$$$$$&&@&&&&&&@     ",
"         @&&&&&&&@&&&&&&&&&@&&&&&@      ",
"          @&&&&&&@&&&&&&&&&@@@@@@       ",
"           @@@@@@#@&&&&&&&@             ",
"                   @@@@@@@              ",
"                                        ",
"                                        ",
"                                        ",
"                                        "};
