/* XPM */
static char * walkable_xpm[] = {
"16 16 4 1",
" 	c #DDB982",
".	c #C29861",
"+	c #D6AF74",
"@	c #CCA46A",
"  ..+++++++++@  ",
" @  @++++++++.  ",
"@    +++++++@@..",
"     @+++++.@@@@",
"    +++@++    .@",
"@  @++@         ",
"+@@++.          ",
"@@  @           ",
"     @+++@     @",
"@@  @++++++@+++.",
"  @.++++++++@@@ ",
"  @ .@+++++++   ",
"   .@.+++++@@   ",
"   .@@.+@@. @   ",
"   .@@@.++++@   ",
"  @@@.+++++++@  "};
